<?xml version="1.0" standalone="no"?><!DOCTYPE svg PUBLIC "-//W3C//DTD SVG 1.1//EN" "http://www.w3.org/Graphics/SVG/1.1/DTD/svg11.dtd">
<svg t="1726647132512" class="icon" viewBox="0 0 1024 1024" version="1.1" xmlns="http://www.w3.org/2000/svg" p-id="4695" xmlns:xlink="http://www.w3.org/1999/xlink" width="200" height="200">
    <path d="M890.95020587 802.7684992L692.45609173 802.7684992c-66.76213333 64.7340768-169.20081493 180.87469227-169.20081493 180.87469227-6.20532907 6.46292907-16.307408 6.46292907-22.49199787 0 0 0-139.9468096-144.85867947-173.75466346-180.87469227L133.06944213 802.7684992c-71.91304747 0-130.1820128-67.20747627-130.1820128-140.12472853L2.88742933 167.55022187c0-72.91616107 56.99624533-132.0408832 127.27746027-132.0408832l763.6680384 0c70.30086293 0 127.27746027 59.12472213 127.27746027 132.0408832l0 495.0935488C1021.11147947 735.55010773 962.84251413 802.7684992 890.95020587 802.7684992L890.95020587 802.7684992zM257.44344213 364.41468693c-35.140608 0-63.63927573 29.56290667-63.63927573 66.0253536 0 36.45262293 28.49757653 66.0155296 63.63927573 66.0155296s63.63927573-29.56290667 63.63927574-66.0155296C321.08271787 393.9775936 292.58404907 364.41468693 257.44344213 364.41468693L257.44344213 364.41468693zM511.99945387 364.41468693c-35.140608 0-63.63927573 29.56290667-63.63927574 66.0253536 0 36.45262293 28.51831573 66.0155296 63.63927574 66.0155296 35.140608 0 63.63927573-29.56290667 63.63927573-66.0155296C575.63873067 393.9775936 547.14006187 364.41468693 511.99945387 364.41468693L511.99945387 364.41468693zM766.55546667 364.41468693c-35.12096 0-63.63927573 29.56290667-63.63927574 66.0253536 0 36.45262293 28.51831573 66.0155296 63.63927574 66.0155296 35.1613472 0 63.63927573-29.56290667 63.63927573-66.0155296C830.1947424 393.9775936 801.71681387 364.41468693 766.55546667 364.41468693L766.55546667 364.41468693zM766.55546667 364.41468693"
          p-id="4696" fill="#8a919f"></path>
</svg>