<?xml version="1.0" standalone="no"?><!DOCTYPE svg PUBLIC "-//W3C//DTD SVG 1.1//EN"
        "http://www.w3.org/Graphics/SVG/1.1/DTD/svg11.dtd">
<svg t="1664541790190" class="icon" viewBox="0 0 1024 1024" version="1.1" xmlns="http://www.w3.org/2000/svg" p-id="1038"
     xmlns:xlink="http://www.w3.org/1999/xlink" width="200" height="200">
    <path
            d="M149.81718926 376.01755743c-59.27949653 0-107.50467186 48.20653397-107.50467185 107.46117537l0 406.26960611c0 59.24842762 48.22517533 107.46117537 107.50467185 107.46117538l68.06578669 0 0-621.19195686L149.81718926 376.01755743z"
            p-id="1039"></path>
    <path
            d="M887.53623191 353.12597826l-229.77950757 0c12.55805686-34.98981603 20.84103054-73.0181723 23.80500537-109.80998561 4.58577237-57.21652034-4.21294535-108.03905726-25.43923049-146.96219838-26.12896048-47.88963101-70.60101044-77.75928927-128.63775023-86.38402104-26.28430507-3.90846995-48.89626397 1.15576377-67.20207075 15.01871521-37.00929573 28.04280586-43.80096133 81.39435274-51.6676115 143.17179031-6.28834911 49.38715287-13.41555902 105.36091648-37.3696952 145.48331786-11.96774741 20.05809379-32.42973715 45.04371807-77.74686169 56.33416306l0 627.23175462 504.82642944 0c29.52790016 0 58.52141492-10.1036123 81.64911786-28.43427424 23.14013051-18.33687571 39.56937462-44.26078132 46.29268859-72.99953094l89.2237202-381.40825752c9.1901861-39.25868544 0.08077919-79.89683086-24.98562427-111.493921C965.42601065 371.25779911 927.90097086 353.12597826 887.53623191 353.12597826z"
            p-id="1040"></path>
</svg>