<?xml version="1.0" standalone="no"?><!DOCTYPE svg PUBLIC "-//W3C//DTD SVG 1.1//EN" "http://www.w3.org/Graphics/SVG/1.1/DTD/svg11.dtd">
<svg t="1725980042947" class="icon" viewBox="0 0 1024 1024" version="1.1" xmlns="http://www.w3.org/2000/svg" p-id="1897" xmlns:xlink="http://www.w3.org/1999/xlink" width="200" height="200">
    <path d="M118.784 264.41955555h786.432V118.784H118.784v145.63555555z" fill="#707070" p-id="1898"></path>
    <path d="M89.65688889 118.784v145.63555555a29.12711111 29.12711111 0 0 0 29.12711111 29.12711112h786.432a29.12711111 29.12711111 0 0 0 29.12711111-29.12711112V118.784a29.12711111 29.12711111 0 0 0-29.12711111-29.12711111H118.784a29.12711111 29.12711111 0 0 0-29.12711111 29.12711111z m58.25422222 29.12711111h728.17777778v87.38133334H147.91111111V147.91111111z"
          fill="#707070" p-id="1899"></path>
    <path d="M118.784 584.81777778h786.432V439.18222222H118.784v145.63555556z" fill="#707070" p-id="1900"></path>
    <path d="M89.65688889 439.18222222v145.63555556a29.12711111 29.12711111 0 0 0 29.12711111 29.12711111h786.432a29.12711111 29.12711111 0 0 0 29.12711111-29.12711111V439.18222222a29.12711111 29.12711111 0 0 0-29.12711111-29.12711111H118.784a29.12711111 29.12711111 0 0 0-29.12711111 29.12711111z m58.25422222 29.12711111h728.17777778v87.38133334H147.91111111V468.30933333z"
          fill="#707070" p-id="1901"></path>
    <path d="M118.784 905.216h786.432v-145.63555555H118.784v145.63555555z" fill="#707070" p-id="1902"></path>
    <path d="M89.65688889 759.58044445v145.63555555a29.12711111 29.12711111 0 0 0 29.12711111 29.12711111h786.432a29.12711111 29.12711111 0 0 0 29.12711111-29.12711111v-145.63555555a29.12711111 29.12711111 0 0 0-29.12711111-29.12711112H118.784a29.12711111 29.12711111 0 0 0-29.12711111 29.12711112z m58.25422222 29.1271111h728.17777778v87.38133334H147.91111111v-87.38133334z"
          fill="#707070" p-id="1903"></path>
</svg>