<?xml version="1.0" standalone="no"?><!DOCTYPE svg PUBLIC "-//W3C//DTD SVG 1.1//EN" "http://www.w3.org/Graphics/SVG/1.1/DTD/svg11.dtd">
<svg t="1726236398648" class="icon" viewBox="0 0 1024 1024" version="1.1" xmlns="http://www.w3.org/2000/svg" p-id="1775" xmlns:xlink="http://www.w3.org/1999/xlink" width="200" height="200">
    <path d="M512 512m-512 0a512 512 0 1 0 1024 0 512 512 0 1 0-1024 0Z" fill="#E9F4FF" p-id="1776"></path>
    <path d="M263.314286 400.457143c0-15.535543 3.9936-29.842286 12.726857-43.578514C309.423543 301.304686 404.538514 263.314286 517.12 263.314286c88.619886 0 166.429257 23.508114 211.792457 60.650057 2.486857 0.555886 4.827429 1.799314 6.933943 3.847314C759.530057 350.880914 775.314286 373.76 775.314286 400.559543c-0.1024 19.748571-7.811657 38.253714-21.650286 54.798628 13.458286 17.92 21.650286 36.366629 21.650286 56.992915-1.111771 22.864457-10.869029 44.1344-27.4432 62.902857C764.7232 594.826971 775.314286 614.780343 775.314286 637.469257 771.072 716.244114 657.773714 775.314286 517.105371 775.314286 376.6272 775.314286 263.314286 716.244114 263.314286 637.469257c0-22.4256 7.811657-42.364343 25.453714-61.630171-16.310857-18.914743-25.453714-40.389486-25.453714-63.488 0-20.48 6.100114-38.970514 19.704685-56.744229-12.6976-16.530286-19.704686-34.874514-19.704685-54.447543v-0.702171zM716.551314 606.061714c-46.869943 31.509943-120.992914 51.390171-199.241143 51.390172-82.110171-0.292571-152.400457-19.982629-199.255771-51.390172-7.68 7.7824-15.652571 19.602286-15.652571 31.509943 0 47.250286 89.775543 98.552686 214.893714 98.552686s214.893714-51.390171 214.893714-98.552686c0-11.922286-7.665371-23.727543-15.652571-31.509943z m4.447086-121.607314l-0.190171 0.146286c-46.167771 33.455543-120.071314 54.301257-203.702858 54.301257-83.3536 0-157.125486-20.7872-203.3664-54.125714-6.070857 7.665371-11.322514 17.583543-11.322514 27.574857 0 48.859429 89.834057 101.888 215.04 101.888 125.176686 0 215.010743-53.130971 215.010743-101.888 0-10.122971-5.193143-20.187429-11.4688-27.896686zM517.12 302.504229c-81.568914 0-148.289829 21.942857-184.758857 50.322285a23.405714 23.405714 0 0 1-5.851429 5.412572 52.955429 52.955429 0 0 0-3.042743 2.223543c-8.894171 8.440686-15.184457 17.290971-18.505142 26.185142-1.375086 4.3008-2.1504 8.923429-2.1504 13.809372 0 10.576457 4.783543 21.357714 13.692342 31.685486 3.189029 0.292571 6.392686 1.243429 9.567086 2.852571 38.912 36.542171 113.181257 57.095314 191.195429 57.095314 78.116571 0 152.576-20.245943 191.488-57.095314a18.724571 18.724571 0 0 1 13.282743-6.026971c6.509714-9.142857 9.976686-18.563657 9.976685-27.794286 0-47.279543-89.775543-98.669714-214.893714-98.669714z"
          fill="#5F96F5" p-id="1777"></path>
</svg>