<?xml version="1.0" standalone="no"?><!DOCTYPE svg PUBLIC "-//W3C//DTD SVG 1.1//EN" "http://www.w3.org/Graphics/SVG/1.1/DTD/svg11.dtd">
<svg t="1726236979693" class="icon" viewBox="0 0 1024 1024" version="1.1" xmlns="http://www.w3.org/2000/svg" p-id="1810" xmlns:xlink="http://www.w3.org/1999/xlink" width="200" height="200">
    <path d="M842.368 298.666667a42.666667 42.666667 0 0 1 41.557333 52.266666l-108.288 469.333334a42.666667 42.666667 0 0 1-41.6 33.066666H426.666667a42.666667 42.666667 0 0 1-42.666667-42.666666V341.333333a42.666667 42.666667 0 0 1 42.666667-42.666666h415.701333z" fill="#FFC63C"
          p-id="1811"></path>
    <path d="M842.368 341.333333H426.666667v469.333334h307.370666z" fill="#FCB301" p-id="1812"></path>
    <path d="M170.666667 170.666667m42.666666 0l512 0q42.666667 0 42.666667 42.666666l0 640q0 42.666667-42.666667 42.666667l-512 0q-42.666667 0-42.666666-42.666667l0-640q0-42.666667 42.666666-42.666666Z" fill="#FCB301" p-id="1813"></path>
    <path d="M725.333333 128a42.666667 42.666667 0 0 1 42.666667 42.666667v640a42.666667 42.666667 0 0 1-42.666667 42.666666H213.333333a42.666667 42.666667 0 0 1-42.666666-42.666666V170.666667a42.666667 42.666667 0 0 1 42.666666-42.666667h512z m0 42.666667H213.333333v640h512V170.666667z"
          fill="#FCE702" p-id="1814"></path>
    <path d="M306.005333 292.992l64.554667-17.28 3.626667 8.533333c7.125333 16.768 13.354667 32.896 18.773333 48.384l2.56 7.850667h47.786667v10.666667l-0.682667 40.021333a320.768 320.768 0 0 1-42.496 77.184l-3.328 4.224 2.901333 1.92 1.066667-0.853333c4.522667-3.84 9.045333-8.192 13.568-13.184l6.784-7.893334 6.784-8.746666 7.338667-9.984 40.533333 40.490666-5.589333 7.381334c-4.394667 5.845333-8.96 11.306667-13.568 16.384l-7.082667 7.253333-4.522667 4.053333 6.741334 5.802667 5.376 4.821333 10.624 9.898667 6.314666 6.016-37.034666 58.453333-9.344-11.776c-7.168-9.002667-14.250667-17.493333-21.290667-25.386666l-10.496-11.434667-2.944-2.986667V695.466667H328.106667V546.346667l-8.661334 7.808-6.912 5.973333-6.997333 5.888-14.378667 11.52-12.288 9.642667-20.266666-67.114667 5.76-4.522667c43.818667-34.432 76.8-68.266667 98.517333-100.949333l6.186667-9.813333 1.365333-2.432H271.786667V340.48h55.893333l-4.949333-11.818667-5.461334-12.288-5.546666-11.776-5.717334-11.605333zM562.773333 279.466667v144.341333l19.029334 12.245333c15.914667 10.453333 31.573333 21.205333 47.061333 32.298667l23.04 16.938667 22.826667 17.493333 7.808 6.101333-38.826667 57.6-19.968-17.792-20.352-17.706666-18.517333-15.701334a1202.901333 1202.901333 0 0 0-8.618667-7.125333l-13.482667-10.837333v197.717333H497.493333V279.466667h65.28z"
          fill="#FCE702" p-id="1815"></path>
    <path d="M358.058667 301.141333l-21.717334 5.802667 5.930667 13.184 5.546667 13.226667 11.264 28.458666H293.12v19.2h112.085333l-7.338666 15.274667c-19.797333 41.258667-56.021333 83.498667-108.074667 126.208l-6.570667 5.248 6.997334 23.168 15.189333-12.8 13.141333-11.818667 12.8-12.117333 18.090667-17.664-0.042667 177.621333h22.229334V493.525333l17.834666 16.128c14.464 13.098667 29.056 28.458667 43.861334 46.08l1.621333 2.005334 11.648-18.389334-3.754667-3.498666-10.453333-9.216-10.709333-8.917334-10.666667-8.576 10.965333-8.234666a141.226667 141.226667 0 0 0 19.072-17.408l6.357334-7.381334-9.941334-9.941333-5.034666 6.058667c-4.266667 4.821333-8.533333 9.258667-12.8 13.226666l-6.528 5.717334-6.613334 5.12-6.016 4.352-28.842666-19.2V474.026667l2.346666-6.698667A337.92 337.92 0 0 0 417.28 398.293333l4.736-10.88v-25.6h-41.941333l-2.346667-7.424a669.525333 669.525333 0 0 0-16.469333-45.653333l-3.157334-7.594667zM541.44 300.8h-22.613333v372.906667h22.613333V454.613333l16.981333 12.544c4.693333 3.456 9.685333 7.253333 14.848 11.264l16.341334 13.098667 17.92 14.933333 19.712 16.981334 12.416 10.88 14.037333-20.821334-14.549333-11.136c-15.061333-11.306667-30.293333-22.186667-45.738667-32.810666l-23.338667-15.658667-28.629333-18.346667V300.8z"
          fill="#FCE702" p-id="1816"></path>
</svg>