<?xml version="1.0" standalone="no"?><!DOCTYPE svg PUBLIC "-//W3C//DTD SVG 1.1//EN" "http://www.w3.org/Graphics/SVG/1.1/DTD/svg11.dtd">
<svg t="1725980013740" class="icon" viewBox="0 0 1084 1024" version="1.1" xmlns="http://www.w3.org/2000/svg" p-id="1742" xmlns:xlink="http://www.w3.org/1999/xlink" width="211.71875" height="200">
    <path d="M186.72941188 843.14352969h225.71294062c14.96470594 0 27.10588219 14.6823525 27.10588313 32.75294062 0 18.18352969-12.14117625 32.80941188-27.10588313 32.80941188H159.68a25.01647031 25.01647031 0 0 1-19.25647031-9.48705844 36.42352969 36.42352969 0 0 1-8.07529406-23.15294156V252.91294156h-26.88a25.2423525 25.2423525 0 0 1-19.31294157-9.71294156 36.42352969 36.42352969 0 0 1-7.90588219-23.3223525V89.09176437c0-18.24 12.25411781-33.03529406 27.21882375-33.03529406h108.25411688c15.0776475 0 27.21882375 14.79529406 27.21882375 33.03529406v130.84235344a37.04470594 37.04470594 0 0 1-7.90588219 23.3223525 25.2423525 25.2423525 0 0 1-19.31294156 9.71294156H186.72941188V493.36470594h225.71294062c14.96470594 0 27.10588219 14.6823525 27.10588313 32.80941187 0 18.12705844-12.14117625 32.75294156-27.10588313 32.75294063H186.72941188v284.16zM325.42117625 87.0023525c0-18.24 11.12470594-32.97882375 24.84705938-32.97882281h625.58117625c13.7223525 0 24.84705844 14.73882375 24.84705843 32.97882281v130.89882375a39.13411781 39.13411781 0 0 1-7.22823468 23.26588219 22.19294156 22.19294156 0 0 1-17.50588313 9.71294156H350.26823563a22.19294156 22.19294156 0 0 1-17.50588313-9.71294156 39.13411781 39.13411781 0 0 1-7.22823469-23.26588219V87.0023525h-0.11294156z m181.21411781 371.68941188c0-18.24 11.01176438-32.97882375 24.84705844-32.97882282h444.36705937c13.7223525 0 24.84705844 14.6823525 24.84705844 32.97882281v130.84235344a39.13411781 39.13411781 0 0 1-7.22823468 23.3223525 22.02352969 22.02352969 0 0 1-17.50588313 9.6H531.4823525a22.02352969 22.02352969 0 0 1-17.50588219-9.6 39.19058812 39.19058812 0 0 1-7.34117625-23.3223525V458.69176437z m0 349.77882375c0-18.12705844 11.01176438-32.97882375 24.84705844-32.97882376h444.36705937c13.7223525 0 24.84705844 14.73882375 24.84705844 32.97882375v130.89882376a39.13411781 39.13411781 0 0 1-7.22823468 23.26588218 21.7976475 21.7976475 0 0 1-17.50588313 9.6H531.4823525a22.3623525 22.3623525 0 0 1-17.61882281-9.6 39.19058812 39.19058812 0 0 1-7.34117719-23.26588218V808.47058813h0.11294156z"
          fill="#707070" p-id="1743"></path>
</svg>